<?xml version="1.0" encoding="iso-8859-1"?>
<!-- Generator: Adobe Illustrator 19.0.0, SVG Export Plug-In . SVG Version: 6.00 Build 0)  -->
<svg version="1.1" id="Layer_1" xmlns="http://www.w3.org/2000/svg" xmlns:xlink="http://www.w3.org/1999/xlink" x="0px" y="0px"
	 viewBox="0 0 512 512" style="enable-background:new 0 0 512 512;" xml:space="preserve">
<circle style="fill:#40495D;" cx="256" cy="256" r="247.916"/>
<path style="fill:#343D4C;" d="M256,8.084c-10.96,0-21.752,0.72-32.337,2.099C345.304,26.029,439.242,130.04,439.242,256
	s-93.939,229.971-215.579,245.817c10.585,1.379,21.377,2.099,32.337,2.099c136.921,0,247.916-110.996,247.916-247.916
	S392.921,8.084,256,8.084z"/>
<path style="fill:#FFFFFF;" d="M277.758,418.223c-47.837,0.106-86.971-40.076-86.971-87.913v-95.276
	c0-0.029-0.024-0.052-0.052-0.052h-71.205c-2.317,0-4.196-1.879-4.196-4.196v-68.121c0-2.161,1.642-3.969,3.793-4.177l3.959-0.382
	c35.677-3.442,63.914-31.679,67.357-67.357l0.382-3.959c0.208-2.151,2.016-3.793,4.177-3.793h57.341
	c2.317,0,4.196,1.879,4.196,4.196v71.205c0,0.029,0.024,0.052,0.052,0.052h71.205c2.317,0,4.196,1.879,4.196,4.196v68.138
	c0,2.317-1.879,4.196-4.196,4.196h-71.205c-0.029,0-0.052,0.024-0.052,0.052v95.861c0,11.209,8.543,20.87,19.733,21.538
	c7.606,0.454,14.737-3.143,18.849-9.423l4.695-7.169c0.812-1.24,2.587-1.35,3.545-0.22l41.146,48.464
	c0.733,0.863,0.697,2.14-0.082,2.961l-3.958,4.171C323.997,408.585,301.733,418.169,277.758,418.223z"/>
<path d="M437.019,74.981C388.667,26.628,324.379,0,256,0S123.333,26.628,74.981,74.981S0,187.62,0,256
	s26.628,132.667,74.981,181.019S187.62,512,256,512s132.667-26.628,181.019-74.981C485.372,388.667,512,324.379,512,256
	S485.372,123.333,437.019,74.981z M256,495.832C123.756,495.832,16.168,388.244,16.168,256S123.756,16.168,256,16.168
	S495.832,123.756,495.832,256S388.244,495.832,256,495.832z"/>
<path d="M351.038,380.117l-38.412-45.244c-3.038-3.578-7.631-5.389-12.303-4.833c-4.597,0.543-8.589,3.311-10.696,7.412
	c-2.082,4.052-6.058,6.907-10.587,7.394c-8.091,0.869-14.956-5.476-14.956-13.394v-88.926h67.368c4.465,0,8.084-3.62,8.084-8.084
	v-75.453c0-4.465-3.62-8.084-8.084-8.084h-67.368V83.537c0-4.465-3.62-8.084-8.084-8.084h-64.674c-4.453,0-8.083,3.645-8.084,8.098
	c-0.008,37.136-30.219,67.346-67.354,67.354c-4.453,0.001-8.098,3.631-8.098,8.084v75.453c0,4.465,3.62,8.084,8.084,8.084h67.368
	v35.926c0,4.465,3.62,8.084,8.084,8.084l0,0c4.465,0,8.084-3.62,8.084-8.084v-44.01c0-4.465-3.62-8.084-8.084-8.084h-67.368v-59.672
	c39.622-3.822,71.242-35.442,75.065-75.065h48.893v67.368c0,4.465,3.62,8.084,8.084,8.084h67.368v59.284H256
	c-4.465,0-8.084,3.62-8.084,8.084v96.304c0,16.429,13.439,30.469,29.868,30.347c10.021-0.074,19.143-5.104,24.55-13.358
	l31.879,37.548c-14.935,15.745-35.601,24.56-57.56,24.311c-42.977-0.486-77.243-36.202-77.243-79.182v-12.581
	c0-4.465-3.62-8.084-8.084-8.084l0,0c-4.465,0-8.084,3.62-8.084,8.084v12.366c0,52.575,42.468,95.966,95.042,95.569
	c28.504-0.215,55.044-13.08,72.909-35.373C353.61,387.377,353.539,383.063,351.038,380.117z"/>
<g>
</g>
<g>
</g>
<g>
</g>
<g>
</g>
<g>
</g>
<g>
</g>
<g>
</g>
<g>
</g>
<g>
</g>
<g>
</g>
<g>
</g>
<g>
</g>
<g>
</g>
<g>
</g>
<g>
</g>
</svg>
