<svg xmlns="http://www.w3.org/2000/svg" viewBox="0 0 1500 1000"><filter id="b"><feGaussianBlur stdDeviation="12" /></filter><path fill="#b2a775" d="M0 0h1500v996H0z"/><g filter="url(#b)" transform="translate(3 3) scale(5.85938)" fill-opacity=".5"><ellipse fill="#ffe7c6" rx="1" ry="1" transform="rotate(-94.6 122 -27.7) scale(33.46215 46.17642)"/><path fill="#070004" d="M143 87l-5 14-23-2z"/><ellipse fill="#ffd6aa" cx="167" cy="91" rx="33" ry="33"/><ellipse fill="#837f57" cx="13" cy="9" rx="33" ry="22"/><ellipse fill="#686a46" rx="1" ry="1" transform="matrix(-4.05507 4.095 -24.2322 -23.99589 207 73.5)"/><ellipse fill="#8f935e" rx="1" ry="1" transform="rotate(163.8 72.1 88) scale(44.67409 20.20429)"/><ellipse fill="#68654c" rx="1" ry="1" transform="matrix(-.59737 -3.78731 34.2395 -5.40056 148.6 59)"/><ellipse fill="#e5d3a6" rx="1" ry="1" transform="matrix(-4.76 4.24101 -15.90225 -17.84829 103.7 92.3)"/></g></svg>