<svg xmlns="http://www.w3.org/2000/svg" viewBox="0 0 1500 1000"><filter id="b"><feGaussianBlur stdDeviation="12" /></filter><path fill="#b0a7a7" d="M0 0h1500v996H0z"/><g filter="url(#b)" transform="translate(3 3) scale(5.85938)" fill-opacity=".5"><ellipse fill="#5d373d" cx="151" cy="169" rx="104" ry="104"/><ellipse fill="#fff" rx="1" ry="1" transform="matrix(-200.11722 32.41192 -6.8411 -42.23824 89.3 25.8)"/><ellipse fill="#543432" rx="1" ry="1" transform="matrix(29.48298 -17.811 14.99886 24.82796 33.4 157.1)"/><ellipse fill="#f6fdf5" cx="23" cy="29" rx="88" ry="88"/><ellipse fill="#5e3f48" cx="216" cy="157" rx="89" ry="34"/><ellipse fill="#aeb8ba" rx="1" ry="1" transform="matrix(-163.27273 -1.70985 .29705 -28.36474 193 71.2)"/><ellipse fill="#30141b" rx="1" ry="1" transform="matrix(-.55753 6.9118 -70.50959 -5.68756 147.8 132.7)"/><ellipse fill="#fff" rx="1" ry="1" transform="matrix(213.8424 -14.57831 2.85557 41.88705 35.1 3.7)"/></g></svg>