<svg xmlns="http://www.w3.org/2000/svg" viewBox="0 0 1500 1000"><filter id="b"><feGaussianBlur stdDeviation="12" /></filter><path fill="#20465f" d="M0 0h1500v996H0z"/><g filter="url(#b)" transform="translate(3 3) scale(5.85938)" fill-opacity=".5"><ellipse fill="#9dd6ff" rx="1" ry="1" transform="matrix(-57.72614 8.08263 -2.78658 -19.90173 124.6 58.3)"/><ellipse cy="101" rx="69" ry="69"/><ellipse fill="#3e66c6" rx="1" ry="1" transform="matrix(-63.3375 -7.30231 3.75981 -32.6112 108.6 12.3)"/><ellipse fill="#388688" rx="1" ry="1" transform="rotate(75.1 -22.1 151.9) scale(24.53981 100.97685)"/><ellipse fill="#000019" cx="239" cy="16" rx="42" ry="26"/><ellipse fill="#00000a" rx="1" ry="1" transform="matrix(-18.8179 -6.05641 13.46987 -41.85228 248.5 75.4)"/><ellipse rx="1" ry="1" transform="rotate(-3.4 1910 -180.6) scale(23.65425 116.14719)"/><ellipse fill="#76bfe6" rx="1" ry="1" transform="matrix(-7.70783 -5.96103 13.20515 -17.07473 223.5 59.9)"/></g></svg>