<svg xmlns="http://www.w3.org/2000/svg" viewBox="0 0 1500 1000"><filter id="c"><feGaussianBlur stdDeviation="55" /></filter><path fill="#24384d" d="M0 0h1500v996H0z"/><g filter='url(#c)' fill-opacity='.5'><ellipse fill="#dde5c5" fill-opacity=".5" rx="1" ry="1" transform="matrix(-7.37078 152.87904 -1220.78731 -58.85799 746.7 931)"/><ellipse fill="#000018" fill-opacity=".5" rx="1" ry="1" transform="rotate(99.7 146.2 221.9) scale(456.66265 1494.14064)"/><path fill="#2c6471" fill-opacity=".5" d="M975.6 483.4l615.2 427.7L-90.8 753z"/><path fill="#9797a7" fill-opacity=".5" d="M945.1 879.2l-29-638.4 62.3 2 39 212.4z"/><ellipse fill="#dad0bb" fill-opacity=".5" rx="1" ry="1" transform="rotate(7.7 -7022.2 2775.2) scale(353.88449 111.37375)"/><ellipse fill="#000125" fill-opacity=".5" rx="1" ry="1" transform="rotate(-112 402 -80) scale(441.77604 259.72129)"/><ellipse fill="#00022b" fill-opacity=".5" rx="1" ry="1" transform="matrix(361.8802 456.74427 -157.70501 124.95027 1203.3 243.9)"/><ellipse fill="#51777b" fill-opacity=".5" rx="1" ry="1" transform="rotate(5.5 -7325.6 383.7) scale(694.35757 91.31384)"/></g></svg>